<?xml version="1.0" encoding="utf-8"?>
<!-- Generator: Adobe Illustrator 22.0.0, SVG Export Plug-In . SVG Version: 6.00 Build 0)  -->
<svg version="1.1" id="Logo" xmlns="http://www.w3.org/2000/svg" xmlns:xlink="http://www.w3.org/1999/xlink" x="0px" y="0px"
	 viewBox="0 0 512 512" style="enable-background:new 0 0 512 512;" xml:space="preserve">
<path d="M255.5,507.8c-71.2,0-142.4-0.2-213.6,0.2C23,508,7.1,494.9,4.5,477c-0.3-1.9-0.4-3.7-0.4-5.6c0-143.5,0-287,0-430.5
	c0-20.7,15.4-36.4,36.2-36.5c22.8-0.2,45.6,0,68.4,0c120.5,0,241.1,0.1,361.6-0.1c19.5,0,32.7,13.3,36,25.6
	c0.9,3.5,1.6,7.1,1.6,10.6c0.1,143.7,0.1,287.3,0.1,431c0,20.4-15.5,36.2-36,36.3c-26.9,0.2-53.8,0-80.6,0.1
	C346.1,507.8,300.8,507.8,255.5,507.8z M272.8,223.9c0-8.8-0.2-17.6,0.1-26.4c0.1-4-1.4-5.1-5.2-5c-20.6,0.1-41.2,0.1-61.8,0.1
	c-6.2,0-6.2,0-6.2,6.2c0,76.5,0,153.1-0.1,229.6c0,4.9,1.6,6.1,6.2,6.1c21.2-0.2,42.4-0.1,63.6-0.1c6.3,0,6.3,0,6.3-6.2
	c0-38.5-0.1-77,0.1-115.5c0-8,0.5-16,2-23.9c2.9-16.1,10.2-29.2,27.4-33.6c5.4-1.4,11.2-1.7,16.7-1.6c17.9,0.2,29.1,8.6,33.1,26.1
	c2.2,9.5,3,19.5,3.1,29.3c0.3,39.6,0.1,79.2,0.1,118.8c0,6.5,0.1,6.5,6.6,6.5c21.1,0,42.1-0.1,63.2,0.1c4.6,0,6.2-1.2,6.2-6.1
	c-0.2-45.9,0.4-91.8-0.4-137.7c-0.2-15.2-2.3-30.7-5.7-45.6c-6.1-26.7-21.7-46.2-49-53.9c-9.4-2.6-19.4-3.3-29.1-4.4
	c-17.4-2-33.7,1.7-48.8,10.4C289.7,203.9,280.5,213,272.8,223.9z M77.9,313.6c0,38.3,0.1,76.7-0.1,115c0,4.6,1.4,5.9,5.9,5.9
	c21.5-0.2,43-0.2,64.6,0c4.1,0,5.8-1,5.8-5.6c-0.1-77-0.1-154,0-230.9c0-4.5-1.6-5.5-5.7-5.5c-21.4,0.2-42.7,0.1-64.1,0.1
	c-6.3,0-6.3,0-6.3,6.5C77.9,237.2,77.9,275.4,77.9,313.6z M115.6,160.2c24.4,0,44-19.2,44.1-43.2c0.1-24.5-19.3-44.3-43.5-44.3
	c-24.6,0-44,19.3-44,43.7C72.2,140.8,91.4,160.2,115.6,160.2z"/>
</svg>
