<?xml version="1.0" encoding="utf-8"?>
<!-- Generator: Adobe Illustrator 22.0.0, SVG Export Plug-In . SVG Version: 6.00 Build 0)  -->
<svg version="1.1" id="Layer_1" xmlns="http://www.w3.org/2000/svg" xmlns:xlink="http://www.w3.org/1999/xlink" x="0px" y="0px"
	 viewBox="0 0 512 512" style="enable-background:new 0 0 512 512;" xml:space="preserve">
<style type="text/css">
	.st0{fill:#FFFFFF;}
</style>
<g>
	<path class="st0" d="M376.7,111.5L255.8,232.5L135.6,112.3c-4.7-4.7-12.3-4.7-17,0l-7.1,7.1c-4.7,4.7-4.7,12.3,0,17l120.2,120.2
		L111.5,376.7c-4.7,4.7-4.7,12.3,0,17l7.1,7.1c4.7,4.7,12.3,4.7,17,0l120.2-120.2l120.9,120.9c4.7,4.7,12.3,4.7,17,0l7.1-7.1
		c4.7-4.7,4.7-12.3,0-17L279.8,256.5l120.9-120.9c4.7-4.7,4.7-12.3,0-17l-7.1-7.1C389,106.9,381.4,106.9,376.7,111.5z"/>
</g>
</svg>
