<svg xmlns="http://www.w3.org/2000/svg" viewBox="0 0 503.841 503.841"><title>instagram</title><path d="M256,49.4706c67.2658,0,75.2332.2565,101.7973,1.4685,24.5618,1.1208,37.9012,5.2245,46.7783,8.6744a78.0519,78.0519,0,0,1,28.966,18.8445,78.0522,78.0522,0,0,1,18.8449,28.9665c3.45,8.877,7.5537,22.2164,8.6744,46.7778,1.212,26.5645,1.4685,34.5319,1.4685,101.7977s-.2565,75.2332-1.4685,101.7973c-1.1207,24.5618-5.2245,37.9012-8.6744,46.7783a83.4265,83.4265,0,0,1-47.8109,47.8109c-8.8771,3.45-22.2165,7.5537-46.7783,8.6744-26.56,1.212-34.527,1.4685-101.7973,1.4685s-75.237-.2565-101.7973-1.4685c-24.5618-1.1207-37.9012-5.2245-46.7782-8.6744A78.0515,78.0515,0,0,1,78.4584,433.542a78.0535,78.0535,0,0,1-18.8449-28.9664c-3.45-8.8771-7.5536-22.2165-8.6744-46.7779C49.7271,331.2332,49.4706,323.2658,49.4706,256s.2565-75.2332,1.4685-101.7973c1.1208-24.5618,5.2245-37.9012,8.6744-46.7782A78.0515,78.0515,0,0,1,78.458,78.4584a78.0522,78.0522,0,0,1,28.9665-18.8449c8.877-3.45,22.2164-7.5536,46.7778-8.6744,26.5645-1.212,34.5319-1.4685,101.7977-1.4685M256,4.08c-68.4176,0-76.9965.29-103.8664,1.5157-26.8145,1.2235-45.1268,5.4821-61.1514,11.71a123.4874,123.4874,0,0,0-44.62,29.0568,123.4874,123.4874,0,0,0-29.0568,44.62c-6.2277,16.0246-10.4863,34.3369-11.71,61.1514C4.3693,179.0035,4.08,187.5822,4.08,256s.29,76.9965,1.5157,103.8664c1.2235,26.8145,5.4821,45.1267,11.71,61.1514a123.4891,123.4891,0,0,0,29.0568,44.62,123.4874,123.4874,0,0,0,44.62,29.0568c16.0246,6.2277,34.3369,10.4863,61.1514,11.71,26.87,1.2262,35.4488,1.5157,103.8664,1.5157s76.9965-.29,103.8664-1.5157c26.8145-1.2235,45.1267-5.4821,61.1514-11.71a128.8162,128.8162,0,0,0,73.6772-73.6772c6.2277-16.0247,10.4863-34.3369,11.71-61.1514,1.2259-26.87,1.5157-35.4488,1.5157-103.8664s-.29-76.9965-1.5157-103.8664c-1.2235-26.8145-5.4821-45.1268-11.71-61.1514a123.4874,123.4874,0,0,0-29.0568-44.62,123.4874,123.4874,0,0,0-44.62-29.0568c-16.0247-6.2277-34.3369-10.4863-61.1514-11.71C332.9965,4.3693,324.4176,4.08,256,4.08Z" transform="translate(-4.0795 -4.0795)"/><path d="M256,126.6354A129.3646,129.3646,0,1,0,385.3646,256,129.3646,129.3646,0,0,0,256,126.6354Zm0,213.3381A83.9735,83.9735,0,1,1,339.9735,256,83.9735,83.9735,0,0,1,256,339.9735Z" transform="translate(-4.0795 -4.0795)"/><circle cx="386.3963" cy="117.4447" r="30.2305"/></svg>