<svg version="1" xmlns="http://www.w3.org/2000/svg" width="682.667" height="682.667" viewBox="0 0 512.000000 512.000000"><path d="M92 70.2v16.3l13 5.4c7.1 2.9 13.7 6.3 14.7 7.3 1.7 1.9 1.8 9.8 1.9 156.2.1 93.8-.2 155.2-.8 156.8-1 2.8-1.6 3.1-21.3 10.1l-7 2.5-.3 16.6L92 458l2.2.1c12.3.4 181.7.1 182.4-.4.5-.3.9-7.8.9-16.9v-16.3l-4-1.4c-2.2-.7-5.3-1.7-7-2.1-10-2.7-21.2-6.3-22.8-7.5-5.3-3.7-5.2-2.5-5.2-51.3 0-24.9.2-45.7.5-46.1.3-.5 7.9-1.1 17-1.5 17.2-.6 21.2-.9 34.5-2.8 14-1.9 17.3-2.5 28.3-5.4 41.6-11 72-33.7 87.6-65.4 3.6-7.3 7.9-18.8 9.1-24 2.9-12.8 3.7-18.4 4.2-28.5 1.3-28.1-5.3-53.6-19.4-74.7-6.2-9.3-21.8-25-30.8-31-20.7-13.7-48.3-22.9-79-26.4-3.3-.3-6.9-.9-8-1.2-1.1-.3-44.4-.7-96.2-.9L92 53.9v16.3zm165.1 28.2c28.2 3.1 40.9 16.2 47.5 49.1.2 1.1.7 4.7 1 8 .3 3.3.8 7.1 1 8.5.5 2.9.5 37.3 0 41-.2 1.4-.7 5.6-1.1 9.4-.9 9.2-1.2 10.8-3.6 19.5-7.2 26.9-21.4 36.3-56.4 37.6-2.7.1-5.5 0-6-.2-.7-.2-1-29.6-.9-86.6.1-47.4.2-86.5.3-86.8.1-.7 9.2-.4 18.2.5z"/></svg>