<svg xmlns="http://www.w3.org/2000/svg" viewBox="0 0 11.5 13.5"><defs><style>.a{stroke-miterlimit:10;}</style></defs><title>cinematography</title><path class="a" d="M3,11" transform="translate(-2 -1.5)"/><path d="M8,6v4.5H3V6H8M9,5H2v6.5H9V5Z" transform="translate(-2 -1.5)"/><path d="M10,5.4142v5.6716l-1-1V6.4142l1-1M11,3,8,6v4.5l3,3V3Z" transform="translate(-2 -1.5)"/><path d="M11,5.7232l1.5.8571v3.76l-1.5.6429v-5.26M10,4v8.5L13.5,11V6L10,4Z" transform="translate(-2 -1.5)"/><polygon points="10.5 0 9 1.5 9 2.914 11 0.914 10.5 0"/><polygon points="11 12.586 9 10.586 9 12 10.5 13.5 11 12.586"/><rect x="3" y="7" width="1" height="6"/><path d="M5.5,9.5A1.5,1.5,0,1,1,7,8,1.5017,1.5017,0,0,1,5.5,9.5Zm0-2A.5.5,0,1,0,6,8,.5.5,0,0,0,5.5,7.5Z" transform="translate(-2 -1.5)"/></svg>