<svg xmlns="http://www.w3.org/2000/svg" viewBox="0 0 14 12.5"><path d="M8,3c3.4206,0,6,1.72,6,4,0,.6364-.347.8807-1.4613,1.338-.86.3531-2.0387.8367-2.0387,2.162a2.9381,2.9381,0,0,1-3,3A5.103,5.103,0,0,1,2,8C2,4.31,5.2322,3,8,3M8,2C4.134,2,1,4.134,1,8a6.1067,6.1067,0,0,0,6.5,6.5,3.9437,3.9437,0,0,0,4-4C11.5,9,15,9.5,15,7c0-3-3.134-5-7-5Z" transform="translate(-1 -2)"/><circle class="a" cx="6.5" cy="8.5" r="1.25"/><path d="M7.5,9.5a1,1,0,1,1-1,1,1.0011,1.0011,0,0,1,1-1m0-.5A1.5,1.5,0,1,0,9,10.5,1.5,1.5,0,0,0,7.5,9Z" transform="translate(-1 -2)"/><circle class="a" cx="3.5" cy="4.5" r="0.5"/><path d="M4.5,5.5a1,1,0,1,0,1,1,1,1,0,0,0-1-1Z" transform="translate(-1 -2)"/><circle class="a" cx="7" cy="3" r="0.5"/><path d="M8,4A1,1,0,1,0,9,5,1,1,0,0,0,8,4Z" transform="translate(-1 -2)"/><circle class="a" cx="10.5" cy="4.5" r="0.5"/><path d="M11.5,5.5a1,1,0,1,0,1,1,1,1,0,0,0-1-1Z" transform="translate(-1 -2)"/><circle class="a" cx="3" cy="7.5" r="0.5"/><path d="M4,8.5a1,1,0,1,0,1,1,1,1,0,0,0-1-1Z" transform="translate(-1 -2)"/></svg>