<svg xmlns="http://www.w3.org/2000/svg" viewBox="0 0 28 27"><defs><style>.a{opacity:0.75;}.b{fill:#fff;}.c{opacity:0.5;}</style></defs><title>color</title><g class="a"><path class="b" d="M16,19a7.9717,7.9717,0,0,1-7.854-6.4668A7.8745,7.8745,0,0,1,11,12a7.9711,7.9711,0,0,1,7.8535,6.4668A7.8558,7.8558,0,0,1,16,19Z" transform="translate(-2 -2)"/><path class="b" d="M11,13a6.9763,6.9763,0,0,1,6.6505,4.8A6.8689,6.8689,0,0,1,16,18a6.9765,6.9765,0,0,1-6.65-4.8A6.87,6.87,0,0,1,11,13m0-2a8.9476,8.9476,0,0,0-3.953.924,8.9836,8.9836,0,0,0,12.906,7.152A9.001,9.001,0,0,0,11,11Z" transform="translate(-2 -2)"/></g><g class="c"><path class="b" d="M16,26.2441a7.9977,7.9977,0,0,1,0-12.4878,7.9977,7.9977,0,0,1,0,12.4878Z" transform="translate(-2 -2)"/><path class="b" d="M16,15.1024a6.9966,6.9966,0,0,1,0,9.7952,6.9966,6.9966,0,0,1,0-9.7952m0-2.5848a8.9983,8.9983,0,0,0,0,14.9648,8.9983,8.9983,0,0,0,0-14.9648Z" transform="translate(-2 -2)"/></g><g class="c"><path class="b" d="M16,19a7.8639,7.8639,0,0,1-2.854-.5332A7.972,7.972,0,0,1,21,12a7.8663,7.8663,0,0,1,2.8535.5332A7.9714,7.9714,0,0,1,16,19Z" transform="translate(-2 -2)"/><path class="b" d="M21,13a6.87,6.87,0,0,1,1.6505.2A6.9765,6.9765,0,0,1,16,18a6.8689,6.8689,0,0,1-1.65-.2A6.9763,6.9763,0,0,1,21,13m0-2a9.001,9.001,0,0,0-8.953,8.076,8.9836,8.9836,0,0,0,12.906-7.152A8.9476,8.9476,0,0,0,21,11Z" transform="translate(-2 -2)"/></g><path class="b" d="M9.0116,11.2293C9.0091,11.1525,9,11.0774,9,11a7,7,0,0,1,14,0c0,.0774-.0091.1525-.0116.2293a9.0735,9.0735,0,0,1,1.9646.6947A9.0993,9.0993,0,0,0,25,11,9,9,0,0,0,7,11a9.0993,9.0993,0,0,0,.047.924A9.0735,9.0735,0,0,1,9.0116,11.2293Z" transform="translate(-2 -2)"/><path class="b" d="M16,27.4824a9.0569,9.0569,0,0,1-1.5989-1.3694,6.9937,6.9937,0,0,1-6.8945-12.17,8.9058,8.9058,0,0,1-.46-2.0192,9.1891,9.1891,0,0,1,.8868-.3767,8.9947,8.9947,0,1,0,8.8827,15.3142A9.0359,9.0359,0,0,1,16,27.4824Z" transform="translate(-2 -2)"/><path class="b" d="M12.0464,19.0813A9.0852,9.0852,0,0,0,12,20a9.0067,9.0067,0,0,1,.0579-.9122Z" transform="translate(-2 -2)"/><path class="b" d="M19.508,11.1337a8.9188,8.9188,0,0,0-2.3334.7288A8.9238,8.9238,0,0,1,19.508,11.1337Z" transform="translate(-2 -2)"/><path class="b" d="M12,20a9.0667,9.0667,0,0,0,.0668,1.0536A9.0667,9.0667,0,0,1,12,20Z" transform="translate(-2 -2)"/><path class="b" d="M13.7906,25.371c.1487.1993.3042.3922.4686.5783Q14.0129,25.67,13.7906,25.371Z" transform="translate(-2 -2)"/><path class="b" d="M15.9937,12.5215l.0007,0L16,12.5176l.0056.0043a9.1213,9.1213,0,0,1,1.0784-.6158A8.9935,8.9935,0,0,0,15.9937,12.5215Z" transform="translate(-2 -2)"/><path class="b" d="M21,11a9.0325,9.0325,0,0,0-1.2252.093A8.9478,8.9478,0,0,1,21,11Z" transform="translate(-2 -2)"/><path class="b" d="M21,11a8.8839,8.8839,0,0,1,1.0047.0593A9.0813,9.0813,0,0,0,21,11Z" transform="translate(-2 -2)"/><path class="b" d="M24.0662,11.5473a9.1891,9.1891,0,0,1,.8868.3767,8.9058,8.9058,0,0,1-.46,2.0192,6.9937,6.9937,0,0,1-6.8945,12.17A9.0569,9.0569,0,0,1,16,27.4824a9.0359,9.0359,0,0,1-.8165-.6209,8.9946,8.9946,0,1,0,8.8827-15.3142Z" transform="translate(-2 -2)"/><path class="b" d="M14.4583,26.1684c.1789.19.3662.37.5608.5437Q14.7274,26.4521,14.4583,26.1684Z" transform="translate(-2 -2)"/><path class="b" d="M23.0081,11.2328c-.2615-.06-.5275-.1056-.797-.142C22.48,11.1279,22.7471,11.1722,23.0081,11.2328Z" transform="translate(-2 -2)"/><path class="b" d="M24,11.5232q-.4111-.1456-.8395-.2511C23.4459,11.3436,23.7267,11.4254,24,11.5232Z" transform="translate(-2 -2)"/><path class="b" d="M13.099,24.3109a8.9933,8.9933,0,0,0,.529.8427A8.9727,8.9727,0,0,1,13.099,24.3109Z" transform="translate(-2 -2)"/><path class="b" d="M12.1152,21.3706c.037.2413.0816.48.1373.7141C12.1968,21.85,12.1522,21.6118,12.1152,21.3706Z" transform="translate(-2 -2)"/><path class="b" d="M12.6652,23.3881a8.95,8.95,0,0,0,.43.9168A8.9617,8.9617,0,0,1,12.6652,23.3881Z" transform="translate(-2 -2)"/><path class="b" d="M12.339,22.4211c.0661.2369.1428.4685.2273.6971C12.4818,22.89,12.4051,22.6578,12.339,22.4211Z" transform="translate(-2 -2)"/><path class="b" d="M24.953,11.924a8.9058,8.9058,0,0,1-.46,2.0192,6.9937,6.9937,0,0,1-6.8945,12.17A9.0569,9.0569,0,0,1,16,27.4824a9.0359,9.0359,0,0,1-.8165-.6209A8.9945,8.9945,0,0,0,30,20" transform="translate(-2 -2)"/></svg>