<svg xmlns="http://www.w3.org/2000/svg" viewBox="0 0 20.6614 21.1832"><defs><style>.a{fill:currentcolor;}</style></defs><title>edit</title><path class="a" d="M24.7,5.6479A3.78,3.78,0,0,0,19.6693,7.362L16,13.7174,12.3307,7.362A3.78,3.78,0,0,0,7.3,5.6479a3.78,3.78,0,0,0-1.031,5.2141A3.7794,3.7794,0,0,0,11.3,12.5761a3.1118,3.1118,0,0,0,1.0985-1.0974l2.4472,4.2387L8.6693,26.4146l4.232-3.33L16,17.7174l3.0986,5.367,4.2321,3.33-6.176-10.6972,2.4472-4.2387A3.1118,3.1118,0,0,0,20.7,12.5761a3.7794,3.7794,0,0,0,5.031-1.7141A3.78,3.78,0,0,0,24.7,5.6479ZM10.3,10.8441a1.83,1.83,0,0,1-2.299-.9821A1.83,1.83,0,0,1,8.3,7.38a1.83,1.83,0,0,1,2.299.9821A1.83,1.83,0,0,1,10.3,10.8441Zm13.7-.9821a1.83,1.83,0,0,1-2.299.9821,1.83,1.83,0,0,1-.2991-2.4821A1.83,1.83,0,0,1,23.7,7.38,1.83,1.83,0,0,1,23.9994,9.862Z" transform="translate(-5.6693 -5.2314)"/></svg>