<svg xmlns="http://www.w3.org/2000/svg" viewBox="0 0 14.5 13.0334"><path d="M3.5,6A1.5033,1.5033,0,0,1,4.97,7.199L5.1322,8h7.6645L11.63,9H3.5a1.5,1.5,0,0,1,0-3m0-1a2.5,2.5,0,0,0,0,5H12l3.5-3H5.95A2.5,2.5,0,0,0,3.5,5Z" transform="translate(-1 -1.4742)"/><path d="M3.5,7a.5.5,0,1,0,.5.5A.5.5,0,0,0,3.5,7Z" transform="translate(-1 -1.4742)"/><path d="M6.3932,11.5069a.5.5,0,1,0,.2214.052.5.5,0,0,0-.2214-.052Z" transform="translate(-1 -1.4742)"/><path d="M10.0689,3.4533,8.3133,7H7.1975L8.6551,4.0553l1.4138-.602m2.0954-1.9791L7.923,3.28,5.5867,8H8.9341l3.23-6.5258Z" transform="translate(-1 -1.4742)"/><path d="M6.8284,10l-.16.3224.6457.5011a1.5005,1.5005,0,0,1-.9235,2.6841,1.4836,1.4836,0,0,1-.6636-.1563,1.5017,1.5017,0,0,1-.6789-2.01L5.7126,10H6.8284M8.4391,9H5.0917l-.9394,1.898a2.5,2.5,0,1,0,3.7753-.8646L8.4391,9Z" transform="translate(-1 -1.4742)"/></svg>