<?xml version="1.0" encoding="utf-8"?>
<!-- Generator: Adobe Illustrator 25.2.1, SVG Export Plug-In . SVG Version: 6.00 Build 0)  -->
<svg version="1.1" xmlns="http://www.w3.org/2000/svg" xmlns:xlink="http://www.w3.org/1999/xlink" x="0px" y="0px"
	 viewBox="0 0 372.2 387.5" style="enable-background:new 0 0 372.2 387.5;" xml:space="preserve">
<style type="text/css">
	.st0{fill:#FFFFFF;}
</style>
<g id="Layer_3">
</g>
<g id="Layer_1">
	<g>
		<path class="st0" d="M132.9,88.8C132.9,88.8,132.9,88.8,132.9,88.8C133,88.8,133,88.8,132.9,88.8L132.9,88.8z"/>
		<path class="st0" d="M98.6,121c-2.4,0.8-4.9,1.2-7.4,1.2c-4.6,0-7.6-1.9-7-6c0.4-2.7,2.8-4.7,5.6-4.6c5,0,9.8,1.2,14.7,1.2
			c16.8,0.1,29-10.6,28.4-23.9c-5.6,4.8-9.3,6.8-16.7,6.7c-8,0-14.7-4.1-23.4-4.2c-12.9-0.1-20.7,7.4-22.3,17
			c-1.3,8.3,2.8,16.9,16.6,17C92.7,125.3,97,123.5,98.6,121z"/>
		<path class="st0" d="M227.1,180.6c-1.3-0.1-2.5-0.5-3.6-1.2c-0.8,5.9,4.8,10.9,12.7,11c6.1,0,11-3.5,12.2-11.3l10.7-67.3
			c0.5-4.1,2-8,4.1-11.5c-8.3,4-20.6,13.2-23.7,22.6c-0.7-0.1-1.4-0.2-2.2-0.2c-9.1-0.1-16.9,6.4-18.4,15.3
			c-0.4,2.7-0.3,8.9,0.7,10.1c2.9-3.3,7.1-5.2,11.5-5.2c1.6,0,3.3,0.2,4.9,0.6l-0.5,3.5c-1.3-0.4-2.6-0.6-3.9-0.6
			c-8.2,0-12.7,5.2-13.5,10.7c-1,6.2,1.2,9.7,3.6,11.9c1.5-3,4.6-4.8,7.9-4.8c1.1,0,2.2,0.2,3.2,0.6l-1,7.2
			C231,178,230,180.5,227.1,180.6z"/>
		<path class="st0" d="M213.8,120.6c5.1,0,9.2-1.8,10.8-4.3c-1.8,0.8-3.7,1.2-5.6,1.3c-3.1,0-6-1.4-5.4-5c0.4-2.5,2.5-4.3,5-4.3
			c5,0,9.8,1.2,14.7,1.2c8.2,0,21.5-3,23.9-18.3v0c0.4-2.3,0.5-4.6,0.3-6.9c-3.5,5.4-6.7,7.9-12.6,7.9c-7.9,0-14.8-4.6-23.5-4.6
			c-14.2-0.1-19.9,9.9-21.1,17.1C199.1,112.3,204,120.6,213.8,120.6z"/>
		<path class="st0" d="M288.4,87.8c-10.6,0-21.1,7.4-23.9,25l-10.8,68.6c-1.6,10.1-8.3,14.2-15.9,14.1
			c-12.4-0.1-19.8-10.7-33.3-10.8c-11.7-0.1-19.4,6.3-21,16.6c-1.6,10.3,6.2,18,17.9,18c10.7,0,17.4-6.6,19.5-11.1
			c-2.3,1.6-5.1,2.5-7.9,2.6c-3.6,0-6.3-1.8-5.8-4.7c0.5-3.5,3.6-5.1,7.3-5.1c7.1,0,21.8,7.9,32.7,8c13.5,0.1,24.4-5.9,27.5-25.1
			l12.3-77.9c1-6.5,3.6-8.9,7-8.8c2.9,0,5,1,8.1,3C301.1,91.2,294.9,87.9,288.4,87.8z"/>
		<path class="st0" d="M157.8,87.5c-14.4,13.7-35.3,27.7-54.2,34.2c3.5,3.1,5.6,5.6,5.2,8.3l-1,6.4c-4.9-0.8-15.6,0.5-17.4,11.6
			c-0.4,2.7,0.4,7.2,2.5,8.6c0.7-2.7,4.3-5.4,6.5-5.4c3.3,0,4.5,1.2,5.6,2.7l-1.8,11.2c-13.8,3.8-25.4,14.4-27.7,29.6
			c-1.8,11.4,4.6,23,19.8,23.2c7.1,0,12.8-4,16.2-8.3l8.3,8.8l4.3-27.6l5.5,6.3c9.4-7.1,19.3-13.3,29.7-18.7l9.7-62
			C171.5,102.3,167.4,93.7,157.8,87.5z M97.6,200.8c-0.7,4.7-4.4,10.1-7,13.1c-6.6-2.4-9.8-8.2-8.7-15c1.2-7.8,8.7-14.1,18.5-16
			L97.6,200.8z M147.9,119.1L147.9,119.1l-8.4,53.1c-3.5-2.6-7.3-4.9-11.2-6.9l9.2-58.1l4-2.9C144.7,105.8,149.2,110.6,147.9,119.1z
			"/>
		<path class="st0" d="M199.5,168.8c-0.4,1.5-1.5,2.7-2.9,3.5c4.3,0.4,8.2-2.5,9-6.7c0.5-3-1.7-4.7-5.7-8.4c3-4,4.6-6.8,6-8.6
			c0.5,0.1,1,0.2,1.6,0.1c2.8,0,4.7-1.4,5.2-4.9c0.1-0.8,0-1.6-0.4-2.3c-0.6,1.5-1.2,2.1-2.7,2.1c-2,0-5.1-1.2-7.4-1.2
			c-2.6-0.1-4.9,1.8-5.3,4.4c-0.1,0.7,0,1.3,0.2,2c1.2-0.8,2.5-1.3,4-1.3l-0.1-0.2c0.5,0,1,0.1,1.4,0.2c-1.2,2-2.7,4.1-4.8,7.1
			c-3.2-3.5-8.1-9-9.6-10.8c4.2-2.1,9.5-5.6,10.2-10.3c0.7-4.7-2.5-7.7-8-7.7c-8.1,0-12.5,5-13.3,9.8c-0.6,3.5,0.6,6.5,2.7,9.7
			c-4.9,2.8-9.2,6.1-10.1,11.8c-1,6.3,2.5,12.2,11.5,12.2c5.9,0,10.2-2.6,13.8-6.4C198.4,166.5,199.7,167.4,199.5,168.8z
			 M184.1,134.5c0.3-2.6,2.5-4.5,5.2-4.5c3.1,0,4.6,1.9,4.1,5.2c-0.4,2.6-1.6,4.8-6.5,7.5C183.9,139,183.8,136.5,184.1,134.5z
			 M184.8,164c-6.3,0-7.8-4.8-7.1-9.3c0.3-2.7,1.3-5.3,3.1-7.4l0.7,0.9c3.3,4.5,7.1,8.8,11.1,12.7C190.6,162.9,187.8,164,184.8,164z
			"/>
	</g>
</g>
<g id="Layer_1_copy">
	<g>
		<polygon class="st0" points="112.8,234.7 100.6,234.7 88.5,303.4 132.4,303.4 134.4,291.9 102.7,291.9 		"/>
		<polygon class="st0" points="137.6,303.4 149.8,303.4 161.9,234.7 149.7,234.7 		"/>
		<polygon class="st0" points="272.3,246.1 274.3,234.7 230.4,234.7 218.3,303.4 262.2,303.4 264.2,291.9 232.5,291.9 235.6,274.7 
			261.5,274.7 263.5,263.3 237.6,263.3 240.6,246.1 		"/>
		<polygon class="st0" points="212.6,234.7 187.3,282.9 187.1,282.9 179.1,234.7 165.8,234.7 178.7,303.4 190.1,303.4 226.5,234.7 
					"/>
	</g>
</g>
</svg>
